<mxfile host="65bd71144e">
    <diagram id="HIP3nbAZw_EuaXWnEj3U" name="Page-1">
        <mxGraphModel dx="846" dy="662" grid="1" gridSize="10" guides="1" tooltips="1" connect="1" arrows="1" fold="1" page="1" pageScale="1" pageWidth="850" pageHeight="1100" math="0" shadow="0">
            <root>
                <mxCell id="0"/>
                <mxCell id="1" parent="0"/>
                <mxCell id="7" value="http://ics2o.mths.ca" style="swimlane;whiteSpace=wrap;html=1;" parent="1" vertex="1">
                    <mxGeometry x="50" y="60" width="805.0699999999999" height="480" as="geometry"/>
                </mxCell>
                <mxCell id="8" value="&lt;font style=&quot;font-size: 14px;&quot;&gt;Fahrenheit To Celsiusn in JS&lt;/font&gt;" style="text;html=1;align=center;verticalAlign=middle;resizable=0;points=[];autosize=1;strokeColor=none;fillColor=none;" parent="7" vertex="1">
                    <mxGeometry x="10" y="55" width="200" height="30" as="geometry"/>
                </mxCell>
                <mxCell id="12" value="&lt;font style=&quot;font-size: 18px;&quot;&gt;Formula&lt;/font&gt;&lt;font style=&quot;font-size: 14px;&quot;&gt;:&amp;nbsp;&lt;/font&gt;&lt;div&gt;&lt;font style=&quot;font-size: 14px;&quot;&gt;(32°F - 32) x 5/9 = 0°C&lt;/font&gt;&lt;/div&gt;" style="text;html=1;align=center;verticalAlign=middle;resizable=0;points=[];autosize=1;strokeColor=none;fillColor=none;" parent="7" vertex="1">
                    <mxGeometry y="90" width="170" height="50" as="geometry"/>
                </mxCell>
                <mxCell id="13" value="&lt;font style=&quot;font-size: 14px;&quot;&gt;Fahrenheit:&lt;/font&gt;" style="text;html=1;align=center;verticalAlign=middle;resizable=0;points=[];autosize=1;strokeColor=none;fillColor=none;" parent="7" vertex="1">
                    <mxGeometry y="180" width="100" height="30" as="geometry"/>
                </mxCell>
                <mxCell id="15" value="" style="edgeStyle=none;orthogonalLoop=1;jettySize=auto;html=1;" parent="7" edge="1">
                    <mxGeometry width="100" relative="1" as="geometry">
                        <mxPoint x="15" y="230" as="sourcePoint"/>
                        <mxPoint x="245" y="230" as="targetPoint"/>
                        <Array as="points"/>
                    </mxGeometry>
                </mxCell>
                <mxCell id="16" value="" style="shape=image;verticalLabelPosition=bottom;labelBackgroundColor=default;verticalAlign=top;aspect=fixed;imageAspect=0;image=data:image/png,iVBORw0KGgoAAAANSUhEUgAAAoQAAAH2CAYAAADptZ0YAAAACXBIWXMAAA9gAAAPYAF6eEWNAAAgAElEQVR4nOzdD3Ac133g+V/zPylaBGgrliU7mgEniaiZjXAFOJSzssTEQMq5+GSmLuQ6l82KyaZAX5JLmLq6AHtJLcWrTQ643J3lnJMNcKmEirMbL3GXMFzHURZwTMlyLMbEGUoAUbaHmFHkyEoUE5StPyT4p6/ezK+Bh0b3/EPPoGf6+6liEZjpafT0vJ73m9/vvTeO67oCAACA5NrCaw8AANarZ1ZSInJQpPS/59RCrxQ5ufFHhhAAADSkZ1a6ROSo/rs/YB+vmSBxoVdmOcPxRoYQAADURbOBj4nIo1Uet0e3O8QZjjcCQgAAUJM6AkFbF2c3/ggIAQBAVT2zpUDwBGeqMxEQAgCAUD2z0msmh4SMEawFk0raAAEhAAAIpMHgOR0L2KhznN0mOut4E3tm5RG34XNdc0CYy+W6ReSwiAyYNiIifSKyKCIzIrJg/p+bm5to1jPO5XLm7055v8/NzTkR7LP0HObm5hbWfYAJlcvl7Gnqg3Nzc9M1nPdGp7bXtP8a/mbD+2kHzbhW6rER15X+zcP6vmT+mferaX1vmozb652k9oj2FVEwKASETXd8uZR/1knLI25DGdlNtWyUy+WGReSSiIxbb7qib7qm8xky9+VyuUu5XO5wTE5QRblczjyXC+Z55XK5oRgfKtA2Wn1dmQ+quVxuSv/msL4fdevd3nvTVC6XO60fagHUoEow+JSI/JL+X81TrEMYgbPOUTnrHNdsoN9B6/dUo3+sYkCob7bmjXbUepOtxGQOT8c9wNJsgn2Moxt4OEBHaPV1pQHelAZ+1RzWwJCgEKhC1xY8FRAMmjUF/6uF3tK6go+b/0UkrbeHOcX5XqezjgnOf19EPqal4aaoVjKesrKBouUXUxaenpubM6VirzzVp5/OvTdbky00JaPJmJ1Wz2KV39E6lMs6R8Xrqgml7CHf+5N5v5nw2pNWK4asgLFPqxxHEvFqAI17PGQCyRn/AtMm+9czWypZ/n7A9i8u9DYWEPbMyvtF5F/rr6+IyDMLvfLpgG3+dqFXrgQ83mTKbl/olb8J2b+5/6P666dCF842GblH3CvW773WMjqzvvvM7b36W7Fq6fas42X2VvZTvm31flcv21PbEj6VjjNEaIYwl8uN+t5sTSDYPzc3N+YFg1J+UzfB4Zi5T8cTemKbddOxTce0w1qggwDWbwOuKzsbad6XjtgfLswH0rm5uUF97/Ic1kwmgAA9s6UMVNgag2HBXdi3kNQdDJrsZM9saYja03ocj2rC6T/3zMorPbPyvbrdp3SbomY07X18RES+IiJ/rT/b972/Z1a+ISIF3a/592V738vKwdminHWKctZJyVnHlNC/LCKf03/FUuBlAsGzzil97/PuK8hZZ+1i3OVtz8hZ54q17WLp8eb28u+zum2q9LfLt3lOyFnH1WMJ0htynFVLyYEBYS6X69GT5DGfuo/Nzc2FZtK0MzhiZQV64lw6NhNg5ubm9s7Nze2zA1wAbXNd9Vg/V8oyj/iylbWUmIHE0azZ4xWed2/I7UFZq9eq7GsNDexe8F3btndaH/Deq//vCSijmszfNhHZbmUBvYziZ0TkzpB9f0G38XgZvHs0gHzY95g9+hxPhQTRp1aN+Sv/bIK1DweU4x/V272/J/rtLvdIsIc1C+j3sZDjrBqch2UI7UBuQd9Qq9Kg0C4TM14HQLPYQV5YByL6QXbMrnLwiiBpTLDXMysHrX9BGaMzVWYUHw+5/bGg24JKuVXMaGDmMZnCP9WhJq/rbV7csrmeHevzNcHgbr3JlKH/k2YZvTGQ5r7TFXZjjuVHReTj1m0PayBn7vspnWzj7W+P75zZazm+pvsxj3ki5O+d0vues257USfzfFweccMysx8PPM7gAHJZ2BhC+xP0RKXMYIBJfVEnKz1Ox/cMWMtELOjjphtdvkYzkoet4/eOY00HELbsQy3jnKptowPXh3wzskOPpcbnNmCNmeqxztdk0FhN//PTznPIWjZoxhpzVel16rH+7oC1lMfERmZW6z0fAY/vq/V8BL3eOvN+SB+7qI8dCTqXjbT1qF4/3zEctmbhTuu5Cr3Wojhuc13pLOA1WbkKyw+N1HidTFofXkdzuZyEHVet152vvdvX7nSlc73e9hiyz4beI5vx/oP2pVm3MwFZI3Pfa3rfKc2yVVt4+p6e2dL2R02wZ00+8e/7OTPppJ6Tppk5+4PdFxZ65UHrfhPQDSz0yu82+GL8uhUMvrTQK99p7duUip8RkbeZ7KEpMy/0lkrStj+VR1yvBHxGs31eVvDF0vlbGQd4Zc2YynLJ1ssAvlbKPq4EdKf0Mb+46jHl/R3V0vXnlrd9xA0KwD1PyCOuF4T6j7Pi+MOwgNAeY1PXgP9qEwT0zep0QAfRo/8O6xvhkVoDUWu2oX9sUOmNVPc3WGdg2xANNKYCsqMNH4uO5xz23Wyfr1JJv8IuDvuyvmJ1MkO5XK4/JJAZ0kH4Nu91M4+r9DebZqPOh3Ve/AGO1wGb13f5tY2wra/3eMcDHm+OacAEMmbsnW/7yK/RJpmwnle3TmYbtz60eP+mawyag9rV8rky9+nrO1PD4+ppj/7jaPj8N+P9B+1LA7ZzFQK9PdY4vVqZoGaxJyw3VdbITNh/Yf38T3YwKDp5RaThYFB85e7be2bXLIWz3frZBH7+gNBfcp21ztsp36QNe9+9vv+97VefQRPEnXVWB4SN8R+n/1hC14RcUzLWT7rLoswChSwTsaBv4PbfWZWRqcFwQDBo6wsIbJplvEqpvK5j0Tdwu7OZ1BK+nXUY0oxVGK/T9M61v9S2ZgKQ7q/acbbqnC7bqPPhEzYGbXnZlYjb+nqP13v8TMAHvMP2WN8mXaMzAY8XvS3oX03Bir43BQVaXrZuVAOry7oOYejYQQ0kK7UZ0et6SrOI3uOiaI/2caz3/Ef6/oP2VUMw2Cy/FDpjt7Ld1r2vNuHYdlk/79Gxefa/bdb99wY83l/+rvU5elk5OyAMe2wt6zquR8UMYU0LU0do2FfC6NfB5+YTq5mlvM960+urY1LKqtmGIrJXy7iDVufS9NmFun/7b5iJOI4ey7EGj8V+biM6k3JMszr22M5qC4KPeOdaz/OqDsv3PPxBxqIev3dejwR07o0yHaxb7d9Gno8Ai5plcXxtVqyOPOq2HsXx9luPt79FxD5XkV+jc3NzI/p3R3y3D4b8q3nIiG7b7zsfQbx1CNcEZla51zOj2Tfz+u71Xbvdvmsjqvboafj8N+n9B21oA4PBJ+otFYfYXuf2u2vYxvaWBnhB/14Skf85gufgZweUYTN+G15UOgotCwj1k6/3Zux1UKuCCmumsqfWN1H7E/GMVw7R8rX3af1YrZmHdfB/MreXwJho8FiWMwX+8T++3yu9wa8aO6TnZ1Xn7Mue2J3conZKE9Z5ndTOaSPGEG7E+fAb8YZGaJu1A5iBJrT19R7vmG85lgX94LR8zNL8a7RpzDFqALZXPwSOeOulBvzN0YBvU7IDvGkNnCf1+S7qtTsYcvxRtMeSCM5/M95/0GY2OBhcz6LJf2X9fLdvtm+QV6zbHvHd/27r56v6vx2QfWOhV7pD/n3nQm9p8knU7KzgwTX7Lk/4CJtR3BJrxhDqIPDl33WMUV3jCPXTZ7cdnPneELu1jFNtV7V+ip203hhNaWjG9x3LLVlnUM/dovXGbL6+yyv1LDZ4LF5HVCpTWQuBd9d5fvzHulDh/PsnFYV9J+1YlRlZzbAR56Pa473z473OUbf19R5vUMYt6DVt5jXaFCaIsj6oLFrl5xJrgoW9cP6o75zazyFw0oUJzHK53JGACSJRtMeg46j7/Dfp/Qft58wGlYnXmxk0fcn/odk+kyH8TM+s/I8LvTKhQa6575+bIQ8LvaWlVeyEVrpntnSdm338gi8g9ALNP7bOS0/PrPy1eW8w5W2dsGLeJ+8TkT9c6K1tZZW6POKek7POa1qufljXLTxeGntYDgbP1Li72hambkDYpJIFa7bPQL0TS/QxpU/duVxuUt+EGuk4al22ZsT3HaarSie5XG5Bszqt+OaUY74gacAOsOo9Fn2T9waSh83KrKbebEBNk4rMc6gjKAlT1zeVbND58B/Dou93c/zLM81rHS/mU6mtR3q8FTTzGo2MBnneDNzD9rkPee5jGih5Y+fMGqk9GlT7x0xXbO8Bt0XRHj1RnP9I33/QXnpmS8u/rJlN3EQmwDm00Bs+UaFWOmv5N0TkV3Q8nwkMx3tm5X/TXXjL4fyyrrX3f+oEChM8vkOv79/0lZtf19vM/v+XntnSRBXvQ9x7dUHqF32ZuUdrXWqvAYes2cLlyTwrQWIl9sSQX9TJJ6+VSsw1fANJrcICwkmrdGEGRI/VOSvNv46h+Dq1mRrG/NRM39j36TEfDliTzPuO5aBP+JHSIKnfWvbB/4Zd17GEzBq0M6CJ+h7mNjkfTWvrTdZOx708McKMo6s27tDcrxNHPD0hWdK6RNwe133+o37/QfvQLNeJFh7wUxoMRhaQaNBmnLRu9gdLT+m2n+qZlZ/XrKHHDgaXROQ37ONb6JUf6pmV/+IbAmIHg9dE5Les38NmDvv577PLwyv3lbOEP+VbksZ7fq/ptvev+W5o8xV4Z53nKmR+Z60PAv5jKYb8vEZYQDhhBYTeEghhY2hW0eyIHZB5bzr2m293pfWwrIHSNb1h66f8Hi1vjmgGwcsS2mtxDUfUyQUugmv/XV1m4phmD3qsGajeY2s9FrvUNeFf606XvIjajHXOQjPEAWOxWmEjzke9mtbWO/m49bXzyr+hf9u83qbyYA0TGQ4pi9v79l+zCxI8ROZwWKCkz3nIK0trNjHK9riu89+k9x+0j7Vfk1ZeH+8xKyg4FdE4tShKxIE0KHxFF3S+Q0RuisgNEfm6iPyeKSF7jzNL02ip+Jc1sHpDRG7TWcq/7P/uY1kJCj8hIh+0JqOYwO9bIvIzvu8+PqUl2rXfS1wO7n5Jfzvju8+UgX9UZxY/7rvPrDk4q+MID+r+Z63tjoYsDXNQX2Nv4om91M1j+hyCjnPl21LMzxUEBoSacRuzgkIzUP60zlqrtN7ZcMAA7RlZO76lJ+yNV9/URr03WV1jLXTyQi6Xu2AFLyM6gH55LJFZA8yMxdH76y7JeKUl381Bi+x2W3/H/D6j3/O8vBZag8eyHHT51zJrYkA2bR3fkK6jFtTxN1IaXa+NOB91aVZb7+Tj9k2okLCxfJYJqy2YYx2vstaf/b604GvP9gcgs9bgmnULrbGI9nCU6Sjb43rOv77HNOP9B+3jjAZR91hfG/e4lyHTDOJ6g8EXNSvYyLIyNdOgr6bVBurZ1nrMz9e0YTngCl8E+hE3PCh+xD0TOi6wvAbhbMhX+wX/vfKxBAd06zlOS+gsY5Np880iPayDlM0sPW8mZSlgMp9WNTDzL1XiH8Bsv8mP+8da6adZu/wyU0NHYzeEoBmE9u9VsxkBY4hGvecqK0Hvmjd67UD8x+J/063rWJSdbbCXmKhl/blG2c/DPPcL+hp7r/lhXyDeShtxPhrRjLbe1sftv7Z8+7aHmVQdU6r78q/1d8nXTru1rU75rj1/52GPF+rT5WmWt9ef/Qvfe/uIuj02dP6b+P6DNmEWbl7oLQV9P7DQK10LvWu+Oi6K0u5jzQ4GsXHCSsaeQd+K+d6n+NKbVIUJBQtBq+ibEoi+uXqz8Eb1DW8mZFZe1dX9dWyQ/XV1p3XgtDcxxi4V1fopwv4GhMOaIZ0J2J/fiDVup08DKW+GX6PHYn8917h2OovN/IJ+zRCPWB1at47ZGo9gEsl6tfx8NKIZbb1Djtu+tuwPcPZ+ay1lHrPKoaI/V2unMwHLw3jZM++4+vR9JGwfI1aGMdL2uM7z34z3H7SZsAkeC3/ndD2567/9o0/c/qs//vy2il9pW8nR0CwV2l7FdQh1DS5vXa9aJ5WM6bp1YVmDQV8GoNv6vk7PQpV9+B3x7bPH+s5Xz0Qd3+M54h/P49tf2PelLurzsx/bF8Gx2Oe+z+psmvamrsdXbabVRgQxG3I+GtSMtt7ux+2vPPgXU56odWFq63qr9VoaCxsLreXeWmYW+r9nuRntsaHz36T3H3SCs44J5GY/+Ob/++N/8g8H3rpvqeEk38O6BAw6UE0LU+ubxz4NAPwLvk5bX9e0T7+VIDR4tILMQd2X94bmjfsbqbejsfZ5TI/F+/uL+vtgPd8lqsff7wsMvQWIK34rgh53vx6L/TVcC+s4ln3amdnHMlLPfhphve5j1ms+452Her5RIsJj2rDzUa9mtPV2P27dt319eKZ1jHJdr6Hub0TbxIj1PcZifWVere9N/va+aD3nMd2HP7sYeXtcz/mP+v0HHeCsc0hntZZms251l3auMyhsOL2IeHNcd71LZwEAgNg566R08sKade6uO9ve+tF3nt/ZQPn4pBmfyIvdeaqNIQQAAO3pVNiix16msMGgsCkcx7lTRHb49n3Vdd1XHMdJue7KkiqOU15KxXXdKwGPKz3G3on/8bLy9664rut9vd2q7RzHMfu80/9czf36WPN3rljbdgX83S7ft4uEPZ87rYk/9t98xRxf0LHocfj3f0XPSeCxe/sLuJ2AEACAjlMeN1jxW0u8oPAD7/rKzq9vScXhDPRqENOlAd4r+u9JM6HFcZxTVhB1SNdXPKdrCnZZAZX3mBITfOnjn3Rd91lZCdTMOXrWW/fPcZx7ReQjjuOccd3S0jD36jF5wZUXKJ7Rv1m01gy8U/fnz55+UNcO9AJFE9yd0+Mp/R0NBo/qMZvjekC3v1P/3u/osXzQXmjaPB+93du+FBw6jvMp3eQB/7Hr33hFAhAQAgDQeWoq65qgcOCtsz9y6m2/8KYGDYUqD2nasjOu65aCOMdxzCLMJoNWz4zmWdd1q32F3kHHcV7QrN6hgGzkA/p/r+6vtF6gF1Dax+M4od+Y6bdDs3KrnosGhR90HOeKF+hpcHjQ216zfB/VoG+HniP/fu619+84zkfM89DfXwg69jAEhAAAdJJydrDWRag//m/f/wuf+bf6S0/lcO+1kG/RaJVeDXDEVyY1UhpMGc+GlEVNZuyQCQo1a7a8NqNmDFOaQTOBWpdXDq7A/puVZl93WduZgNQEcOf0uZgA7mrIItY79N9VLyC09mP28ULI3wssCVdDQAgAQGc5XuOzeUIecZe3rWFJmaNRfndxA+60Ai9/dq/L+lq32ZCg6EnNuHmB373WfQ9olu5Zx3F69fcnA/YR9jf9x2PbYW33ilWyfUFvL/oCWBNoPmZt/4KVvbRr+y8EbG/8TpXjDkRACABApzhbyiDdX8OzOSmPuP6ycqWvOPuphd6Qr2JrnSetCR9HfX+1aslYJ3OYIO9ODfzsgLA0VtAKrExW71zYBAz/3/RKsyHbBZWM79RS8axmPnu1RC3WGMjlyTFeiTqk9FvUEvOdmnG8N2ycYCUEhAAAdI6woMTzXCmD+Mjq4KlnthQQPRryGBMMxv0bSlK1lFO9SSU2zQia+0rBoI7dO66BVRRjJu2S8RXN7H1EA8ozjuNc1TK1N/Hjqn9GtMfaz1X/sWnA+4Ivi1gzAkIAADrB2dI4uLCg7sXSRJNHQicXhJWZNyIYvGLPplVF3/cxv2CVhb0ZuUHlVLGCML+iPtYEgMsBsi7zYgfMVwMeX/Rl4YK28Y7jXuvYrvpmT5cm0+gYxjsrZPaK+s//HP3PbVYzj/ZzDwwu/ViYGgCATnDWMUHdx3zP5KlSKfgRt2K5t2dW/MHAazpmcKPLxGgRMoQAAHQGu1z8hGYEa8oOaeDorVv4nAaDTVtiBvFDQAgAQGco6reTnKkjEPQc9xZ7boPxgmgCSsYAAAAJtynpJwAAACDpCAgBAAASjoAQAAAg4QgIAQAAEo6AEAAAIOEICAEAABKOgBAAACDhCAgBAAASjoAQAAAg4QgIAQAAEo6AEAAAIOEICAEAABKOgBAAACDhCAgBAAASjoAQAAAg4QgIAQAAEo6AEAAAIOEICAEAABKOgBAAACDhCAgBAAASjoAQAAAg4QgIAQAAEo6AEAAAIOEICAEAABKOgBAAACDhCAgBAAASjoAQAAAg4QgIAQAAEo6AEAAAIOEICAEAABKOgBAAACDhtiT9BACtkM1lu0SkV0SK83PzRU464iabyx6kfQLJ5biuy8sPNEk2lz0kIo+JyBUROadBYUpEzszPzT/GecdG0iDwcW2fs9o2aZ9AAhEQAk2SzWVPiYjJDB63sy6aLTwuIiZYPDg/N3+F1wCtpu3TBH9HaZ8ACAiBJtDOVubn5o+G7T2byx7VjpdOFy1VY/v0stu0TyABmFQCRCyby5ZKbZU6W73/lJbrzvAaoFWyuaz5EFJL+zxD+wSSg4AQiFA2lzVjBL3MX1UaFF7RbCHQVNlcNtVA+5z1gkgAnYuAEIjW4zomq54Sm+mgH9OxW0Azmez143W2T/OY47RPoLMREAIR0eygyaqcq2eP2jmf0kH8QFNodvCgZv0aaZ9ksYEORkAIROe4ZggbcarWMh7QoOOa7WvE47RPoLMREALROagD8eumy34UvSwj0ASHGp0golnCWdon0LkICIEIaEdZV6k4gOmsD/J6IGraPmfXuXzMGYY1AJ2LgBCIxqEIAsJzdLhokoMRtU8+sAAdioAQiMa6M4RaNmYmJ5ohqvaZ4tUBOhMBIRCNXvvrv9bhCst7oAlS83PzsxHsdlZnKwPoMASEQDSiCAZFszgM3EfUovqQMUuWEOhMBIQA0Pmi/C5iAkKgAxEQAuuUzWUPauYkCrMM3EeUIh6CcI6AEOhMBIRANKLKwESZyQEkigklADofASEAAEDCERACAAAkHAEhAABAwm1J+gkAAMRHJpUeEJEpPaBj+WJhgpcHaD4CQqBGmVTadFKms5oRkcF8sbDIuQPKMqn0qIgM66/m2hjxgrlMKt0nIqc1wJuWytub2wdFZEFELogIASHQApSM0ZEyqfRQJpV27edmOiBzm/67nEmlh333d5ugz9rmgmYrzH2Hzf/5YsHRgHCIlgOU6bVkrpF+vUZGRGQ8k0r36HVoArueWrbnlAIbg4AQHcUEcNoBjdvPS7MR/g7IBIh2YGcygN0istcK/KbopICqzHU0kS8WzDUjmukzGb4BvZb2+XYQur1em+ZavKQ/A2gBx3VdzjM6jgZ646YzMpk/EbksIkfyxcKk91w1SzGULxb2aQbwtAaDi9Y2pmNayBcLx8JKxmZhale2Pem627b7zuNTF+fPhy4yvT97wHzd3T32bdff+MfAbbVTXcWfAa20rYRs327bRnEu4rBtq1+Pbbu7XnPdbXt8N1drn2aR9Pvt2xy58ZzjXD0zPzf/WNjjZKVEfEGvk2n9UHXJ+73a9pX2DaA5GEOIJBjQ5+jvaExg16OdlemQZgLGBU575eF8sTAYdq4cWRp9fv7LFTtJv4vz59d844N+68nBah2uVAgIotiebZu7bSuPo9ymlg420D7XfKe21z4rPU4/jI3qmMCqwV292wNoDgJCJIHJEEpAsLeg//foNkGTRBbtsU8AgukHq9N6LR2pFtzVuz2A5iIgRBKUAj1TOvYFhV6gt6DbdAeci24rcKxqf/aAyZ58TrerWJLz2I9xZEepJEerRDM0q31qydcMqZg0wyuq7bPe7QE0HwEhksDLPJjS8aT1fPt0fOBCJpU25ePhgKBxIKDUHOri/PlzpX6zDvZjainJAY1qYvs0mb6xfLEwVuNu690eQJMxyxgdTwO8MZ1VbIJAe9xSqUPSySberOJu3WZcA0I6LSCEln579Ppyff+G/Y+qd3sArUGGEImQLxZGMqm0eaoX9P9VC+eqQc1cXNZtvNnElIzREZrRPvX6qJh1DNimriwlgOZj2RlgneqZGVxNlPsChPYJoEaUjAEAABKOkjEQIUrGiDPaJ4AwBIRAhJhljDijfQIIQ8kYAAAg4cgQAhGiJIc4o30CCENACESIkhzijPYJIAwlYwAAgIQjQwhEwJVtI/uzB0749lSxJLc/e6AoIvfYt1GSQzO4su14A+1zVkTut2+jfQKdi4AQiIAjS6PPz3+5rsV6L86fT/lvoySHZnBk6fEG2mev/zbaJ9C5KBkDAAAkHBlCIELM4kSc0T4BhCEgBCLELE7EGe0TQBgCQiBC+7MHukTEG3t15eL8+VnOL+KC9gkgDAEhEK1euyRXSzaFkhxaiPYJIBABIRAhSnKIM9ongDAEhECEGinJ2Y9xnC0ZR27wkqApaJ8AwhAQAtGquyS36jHulufEuUFJDs0S+/aZSaUHRGRKfz2WLxYmmvn3AJQREAIRoiSHOGtW+8yk0kMiMp4vFhz9vcf8LiIDusmMBnczAY8dFpFRERnJFwtj+vOgiCyIyAURISAEWoCAEKhRJpWe0g7OdGqD+WJh0f9ISnKIs6jbpy+bZzPBYLeI7DXXSSaVNr9PZVLp/nyxsOB7vAkm11xLAFqLgBCJoZmIYe2ojLF8sTDiPf9MKm1uP+3LapisxXQmlT5sbjAZEO3cTCc2FnDuzNfReV8RZjrb4zWc35XHuFv+SZwbc7RKNEmk7dNcGyZO9DKEspIdNNdQv/ehKV8sHMuk0n0icti7bvR385gjet15RuySMQ0BaA0CQiSCZiJGvTFJ2hmdzqTSYgWFXifkz2rsq/UcacalrpKv/RhKxmimFrXP7gr3metwzPrwVSojm+vQ4wWZNASgtQgIkRQmMzHpDVDXTsgEguOZVHpMO6o+LxiUlayGyXYM689DmVTa9TKH9nlzZXN2f/aAP9vyjYvz5/9T2Pndnz1gynBd9m2UjNEMrWyfem3N6LU1aH24MtfXtG42pRn66Yo7A9AyBIRIirCsRbd2VObfTMC4wGktD5uObjD8XG3+kFVq9hRFJLTD1TLcqg536fVvPSzljMuKQZ4AACAASURBVOYJ+3ZvsL5Ng9M1graVkO3bbdsozkUctm3167Ftd9frDbTP41ouXlH7kAavDHxZs3/TOjmkW8vLfRowjluPGc2k0vbkEgAt5Lhu4HsY0FF0DOBpf8lYRHp0RqO5v8cf9PlnTwbxymjzc/OPrfecRbkvIOo2FbavWq6TTCp9yQSFQcFepfsAtAYZQiRCvliYtErE4zqr0VviYlH/BWURu3X5i5rUM4tzf/ZAysrAFC/Ony/SGtFMdbZPe9ua26eOD7ykQzSOycoMfWEJGSC+NvHaIClM9sFkMPTfXi8Q1LXRzL8+7cxsA9a4p1p4MzLNv6NVtj9obctEErRCPe3zUCPtU4ddDOr15Fol7MClmgDEAxlCJIIuOWPKWkd00Ls367hUotIM4ozOKrYHwpvtmjLL+OL8+VMicooWiFZpVvvUyVoT1u/mWuqv9Wnli4WarzEAzUFAiEQw2UHN/l3QQe6LOsvRHrM06BsI7y1ATckYHaEVJWMA7YmAEImh6w2OhD1fq9S1HvUs/HvQKtuRLUQr1NM+D9E+geQgIAQiRMkYcUb7BBCGgBCIECVjxBntE0AYAkIgWpSMEWe0TwCBCAiBCFGSQ5zRPgGEISAEIkRJDnFG+wQQhoAQiBYlOcQZ7RNAIAJCIEKU5BBntE8AYQgIgUhsSu3PHvB3tPWU5EocZ2uvI9d5SRCxTXdG1z5v7ODVAToPASEQAVc2P+DvPOssyZW5m7vEuXGO1wRRcmWzaWv3+nbZYPu8+SwvDtB5CAiBCDhy/VPPz88+Vs+egkpy2Vz2YK0lPaBWtE8A1RAQAhFiFifijPYJIAwBIRAtZnEizmifAAIREAIRYhYn4oz2CSAMASEQIUpyiDPaJ4AwBIRAtCjJIc7qaZ+91v20T6DDERACEaIkhzirs32eEZEzvKBAMhAQAhGiJIc4o30CCENACESLkjHijJIxgEAEhECEKBkjztqhZJxJpQdEZEp/PZYvFiZafQxAEhEQAjXKpNKmkzKd1YyIDOaLhUX/IynJIc6a1T4zqXS3BnGTen1MhWw6ki8WxnT7cRE5rLcvaPA3LSKj5vrS2y6ICAEh0AIEhEiMTCo9rJ2NZ1I7oVJgp53UaQ36RDs204FNZ1LpUseVLxacTCptOrIhERkLOHeUjBFnkZeMrQ9KxqQGdY5vm8N67XnBnRcw7jXXn16bU5lUei+tB9gYBIRIBKtDGtQAr0eDP3PbMT0H/k5qXDupfbWeI0rGiLNmlIzzxYLJ5plr7FLQ/XqtmWvpiF5X5lo0t+3zPoxp1tAEi+ZD2YhdMqZBAa1BQIikMB3QtGYvTAe0kEmlJzXT5wWMfV4wqNsc085sWH8eyqTSrpc5tM+bK1se2J898JjvXBY16Au0P3vgoL9zdmR7ynGWXqFVIkqubO5toH2aDOEh+7YG26fJ/s14155eZ+bncS/zrteUydbPaKnYqbA/AE1AQIikMB3NqBmwbmUID2vZWLSTmgkYFzjtBY1eJiSYY0pxO3x3hY7PUil/QLj0xuLDslLeXmZK1f4Ha3C6RtC2Ydu327Zhx9xu27b69di2e89zItLlu7nu9inidIk4z1Z5nH0s3Xr92NdOt157095z0LLz6Uwq3R80NhdA8zmuG/geBnQca+yfZzFfLOyVlft6/EGfyQqaTEZY52tkc9lSpm9+bt6fgalblPsCWtk+tWQ8Ycq/1m3DmmHfa91Wmkziu80EiZe9IR28cEDrkSFEImRS6VHNAvZrWaqUlcik0hfyxUK/CQ41c+HXrSWsmujMTG+iSD0l43MX58+fozWimepsn3bJuNH26ZWHbTPW7GK/oGsQQAts4iQjIYZ0BuSM9XTNgPU+XfdsRn/2d0gDAR1aVLyS3EFreQ8gLqJonz0BH6jMMI1FLRN7zASvhXyxMLl2FwBagQwhkqKUlcik0tNWUDiumcEZnf04o7OKB61ZxiYgrGeWcdFa1qPatswyRkvV2T6jWJi6R6+xZXptDeqYQW/Mkrn2jtAagI1DQIikOKJLzFzIpNLeU/YvMD2omYrLuo13PyVjdIRmlozzxcKaD072OEHf7eaa6qdVAfFBQIhE0KDvWKV1zXSbCjOJgUTxz0oG0MEICIEI1VmSMxkXsoJoGdongDAEhECEKBkjzjZgljGANsEsYwBAEErGQIKQIQQiREkOcUb7BBCGgBCIECVjxBklYwBhKBkDAIJQMgYShAwhECFKcogz2ieAMASEQARc2fLA/uwBf0dbT8m4xJHtKcdZeoXXBFGKuH1e4cUBOg8lYyAaOyI8j1HuCwCAqsgQAhFw5Ma55+fP11SK8wSV5LK57JqsDLBejtx4lvYJoBICQiBCzDJGnNE+AYShZAwAAJBwZAiBCDGLE3FG+wQQhoAQiBAlOcQZ7RNAGErGAAAACUeGEIgQJTnEGe0TQBgCQiBClOQQZ7RPAGEICAEAsZFJpQdEZEqP51i+WJjg1QGaj4AQqFEmlTadlOmsZkRkMF8sLPofSUkOcdas9plJpcdFpCdfLAxavw/5NlvIFwv7ZCXoKz1G75vR4M/8P2quL7O9iFwQEQJCoAUICJEYmVTaDXmu06Yjy6TS3SJyWoM+0U5qJF8sTGdS6cPmhnyx4Fid3Zh/R5TkEGdRt89MKj2sAZwxbd3Vo9fOmmtEr7Mp+379sGWuvX00IGBjMMsYiWGCOfufdj4myzei58B0Sqaz2qv3m4BwKpNK99BKkEBXqj1lE9DpteLP4vVohi9In/dY6z7zc49eayN6LV6yrk0ATUaGEElmMhKmQ5vRDGCfBoOlUnC+WDimHdSw/jykWcaZsI6KkjHirM72OSsisw0+ndJ1k0mlT+vvdknY/Fs02UUrKDSZxpl8sbCggaRDQwJai4AQiWSCO+20vMxGn3ZI/nGB095YKG98VBBXthzcnz3g72jrKcmVOLI95ThLVTMzQD1c2fJAq9qnloRFr6d+WSkJm2z7PnONZVJp84FqPJNKj1oP7edFBTYOASGSakizg14A2K3lY79Fa+B7JVejOI9Lbyw+KuUO9Bft27Ust0rYmMigbSVk+3bbNopzEYdtW/16bNt9+18EbVtFQx9M9JryH9sREblsxudmUmnRcYfLM4h1LKIJGPs1SwigxRzXDRtnD3SmTCrdp7MX+7WEJZqpGPAyGh7tqIa82ZFBsrlsKZMyPzdfUymukij3BUiL2qc9y1ivGVMO3mvd360BoQkMzfCMbn/GPZNKmzGDE0ETUQA0HxlCJJGZRbzoBYNqRsc8dfvKxgO+2ZMVMcsYcdai9jmh19KUFfSd1mz7tDW+cMiXIezR6xDABmCWMZKo2z8DMl8sTFqziktjoDTrMRC0vAyQAOspGZtAsNuUr7WE3e2t3akZQPNv1Lp/SEvINX/4AhAtMoRIop6Q8YKDmsm4rOOcvAWoax7TxCxjxFmzZhmbWfi+32cqTRKxgkIAMUFAiMTJFwtHgp6zldlo2P7sgV4ReVwfP3tx/vzxsH3tzx44apXvTlUq3wFRqLN9HhIR737aJ9DhCAiBaF2xsn7FKnsu1rEtEAXaJ4BABIRAhCgZI85auDA1gDZDQAhEiJIx4oySMYAwBIRAtOwMTLVZmpTk0Gq0TwCBCAiBCF2cP3+l1jIwJWO0Wp3tk5IxkCAEhECEKBkjzigZAwhDQAhEq56S3DmrFEdJDq1QT/uctbalfQIdjoAQiFCdJbkiHS1aifYJIAwBIRABV7Z+RL/71VZPybjEkR1djnONcYWIVIPt0y4Zl5Tb59KzvDpA5yEgBCLgyM1nXRH/GKt6SsZlzk0zxutOXhNEyZGb51yRT/l2WU/JuKzUPl3aJ9CBCAiBSNwq6qzhmgWV5LK5rPnPn8kB1unWK7RPAJUQEAIRYpYx4oxZxgDCEBAC0WKWMeKMWcYAAhEQAhFiFifijPYJIAwBIRAhSsaIM9ongDAEhEC0KBkjzmifAAIREAIRoiSHOKN9AghDQAhEiJIc4qwd2mcmlR4QkSn99Vi+WJhoxd8Fko6AEKhRJpU2nZTprGZEZDBfLCwGPJKSHOIs0vaZSaW7NXibzBcLYwH3XRCRnnyx4PjuGxKRURHp1psm8sXCMf3Z3D4oIgv6eAJCoAUICJEY2kGNi8hhfc4LmoGYlpX7T2vQJxr4jZj7M6l06TGmY8uk0mYfpkMb8587SnKIsyjbp/UByZgM2MRcS2s+NOm1NO5l/zKpdJ/Z1lxXVlAIoMUICJEkXhlqr8nuZVLpYXNbJpXeq9k+//3jev++Ws8RJWPEWZTtM18smCyeCfAu+R+r186Cfqga991trrsxrxScLxZmMqn0Mb3WzIesEbtkTIMCWoOAEImgWYkeEdnnlXpNiSuTSptOqVvHLfV5waDefyyTSpvHDOvPQ5lU2vUyhyHnjZIx4qzp7VM/aJky8aCWhu37uvU6W5Vd1yy8+XFAA0XHv18AzUVAiKQwnZApDY975V8N7I5phsJ0XDMB4wKntTy8nBGphJIx4qzZ7VOvrcM6BjCIN2YwaPztgnU/gBYjIERSdGtHNe0NcNcxUGbsUr/eH9RJLWpmsSJXth7dnz3g/9L/ekpyJdffePNhPbYT9u3+Qfm6jRu036Btw7Zvt22jOBdx2LbVr8e23Xu+EkX7dGRHl+MsPRv2GJ0QYq6Xy5rx8x/TXv0/KPDrCbkGAbQAASGSZNGX5TtiOi7NHi6GdFLdmrmoyJGbT7oin/JtU09JzvM5WiSi5sjNc5G0T+dmr4h7Z9gD8sXCqvG2mnkft4PXTCo9o9fcpHWbNzllmhcf2BgEhEiKGWt2sV+33j9sxjj5ysYDtXVSt165OH++plKcJ6gkl81lf0BEDs7PzT9W8cEVMkRRbM+2zd22lceRzWUPitw6GFH7NP/5M431GtPM/II1y3hcl56p+uELQHMQECIpJjXgm7KyhGZZDNMplTIVmrkwMx0HrVnGJiBkljE6Qhzap7nedFbxqF5j4luHEMAGICBEImiAN6iZCW8804yWjT2DGiR645+8BajryVowyxhxVk/7PFNL+/SXiX33TQQtLB12O4CNQ0CIxNDArj/s+WqpuOpM4kqYZYw4q7N91rwtgPZHQAhEiJIx4oz2CSAMASEQLUrGiLPIS8YAOgMBIRAhSsaIM0rGAMIQEAIRoiSHOKN9AghDQAhEi5Ix4oySMYBABIRAhCgZI84oGQMIQ0AIREi/L9b7+rmnLs6fD/1Wh/3ZAyZT431n8cmL8+erfjsJsB51tk9TTv4Y7RNIBgJCIFqzIvIDusdqJblTVgaGTCFaod72Oas/0z6BDkdACESIkjHijJIxgDAEhEAEXNk2sj974IRvT/WUjEsc2SmOc2087DFAI1zZdryB9mmXjO32+QQvAtB5CAiBCDiyNPr8/JfrHWN1ak0GxrnRK3Kri9cEUXJk6fEG2+fsqlton0DHIiAENkhQyTiby5r/QrM2QKsElYxpn0DnIiAEIsQsY8QZs4wBhCEgBCJ0cf78uVKFrgbawdLJomXqbJ+PW99qAqDDbeIFBgAASDYyhECEKBkjzigZAwhDQAhEiJIx4oySMYAwlIwBAAASjgwhECFKxogzSsYAwhAQAhGiZIw4o2QMIAwlYwAAgIQjQwhEiJIx4qwd2mcmlR4QkSn99Vi+WJhoxd8Fko6AEKhRJpU2nZTprGZEZDBfLCz6H0nJGHHWzPaZSaXHRaQnXywM6u99ImJu69NNpkXkiHfdZFLpUREZ1vvMbSMa/JnbzT4WROSCiBAQAi1AyRiJYTqsTCrt+v5d8p5/JpXuNkGfdf8FzVaY+w6b//PFgqMB4RAtByhdG8PmerGvCXMtaZZvRq+ZvSLSrcFe6TEiYq6pfr1/xASPmVS6h1MKbAwyhEiSHs1CjIU8Z69MtddkMTTjYQLEfdXOkSvbTuzPHjjhu7meklzJ9TfeLP2fSaVX3a6d5iraCa8RtK2EbN9u20ZxLuKwbatfj227u16Lon06slMc59oTvuMw19OYlyHUm70PUMf0f3M9TVgZQRM8TuSLhRm9f0KDxAENDpdLxmHHByBajusGvocBHUezgSYgnPQ/N80AnvaCQet20zEtmI4trGSczWVNp3pwfm5+3eXfKPcFRN2mKu3LXzIOuN9cX91B92t5+YJeV9O8cEDrkSFEkpjsxbB2TKKB3THNUvRpecs/LnDaK4WFdXQAwmn5+LRef0HB4JCWkkcIBoGNQ0CIRNBOSTTo65eV7J9XEu7Wge1+i1YZrCpmGSPOWt0+tQxsgr3JfLGwz3dfjwaK3TrZhGAQ2EAEhEgEzfz5x1wdEZHLWgZe1I7Jr1tnO9aEWcaIs1a2Ty0hD+jEkRnffX06TnDSG2cIYGMxyxiJoDMhL1d4rqWysZVJ9Axo2RhAjbQMfDgoGFQmMzhGMAjEBxlCJMWEjh+cssYCntbM4LTOgpzREvKgNcvYBIRVZxl7KBkjzlrYPvs0u345k0r779unwzBGdS1CW6VVAAA0EQEhEkEDvEFd68ybWu9fYHpQg0SvE/Pup2SMjtDM9mln+/TnStm/mo4BQOsQECIxtHTVH/Z8NTBkJjEAIHEICIEIUTJGnNXZPo+LyMf0V9on0OEICIEIUTJGnNXZPh8Xkcd5QYFkYJYxAABAwpEhBCJEyRhxRskYQBgCQiBClIwRZ5SMAYShZAwAAJBwZAiBCLiybWR/9sAJ357qKRmXOLJTHOfaOK8JouTKtuMNtE+7ZFyi7fMJXhyg8xAQAhFwZGn0+fkv11X+DSoZZ3NZ00GHdtJAIxxZeryB9rmmZEz7BDoXASEQof3ZA10i0qt7vHJx/vws5xdxQfsEEIaAEIhWrz2Ls1I2hVnG2AD1tE9mGQMJQkAIRIhZxogzZhkDCENACESonpLc/uyBlIik9NfixfnzRV4LNFOd7dPelvYJdDiWnQGildKsn/l3tMqej2r57nM1bAtEgfYJIBAZQiBCmnGpaRYmJWO0Wp3tk5IxkCAEhECEKBkjzigZAwhDQAhEK2Vl/Uxne7zC3g9apbhT+g9opnra5yHaJ5AcBIRAhOosydHJoqVonwDCEBACEaJkjDijZAwgDAEhEC1Kxoiz2JeMM6n0gIhM6a/H8sXCRCv+LpB0BIRAjTKptOmkTGc1IyKD+WJh0f9ISnKIs2a0z0wq3a0B3GS+WBjT2/pEZFxE+nSzaQ3uFgIePywioyIyoo83Pw+KiNn2gogQEAItQECIxAnogEq0YzutQZ9o4Ge2mc6k0ofNDfliwcmk0qajGxKRsZVzt+nO/dkD/o62npJxieNs7XXkOo0SEWuofdol45Jy+7yxw/vd+pBkTOptPVaA2G8FjObfPnt/mg0019KaD1cAWouAEIlSpQPyylR7TfZPA7+pTCq9r9o5cmXzB0XkXt/N9ZSMS5Zef+1hKR/nCft2E4j6H5xJpd2gnQZtG7Z9u20bxbmIw7atfj227d7zlQba56E1C1K7m7vEufmsdQyD+jcvWVuZ62shXywc023MtWS2u5RJpYe8ErCVRTyiH8Q8I3bJuMLxAYiQ47qB72FAx9EO6LTVAU1YJa7DetteuxSsGZBS5xZWMs7msiawOzg/N7/uRaaj3BcQdZsK25cGhKXrKZNKmzLvdL5YGPFtY19L3VoOPqYZ+Ev29Qig9cgQIhGscrDpgGYyqbT/aZtgcSZgXOC0ZjyWsyGVMMsYcdaiWcbdIRl4MyawR382weGYCQZpMEA88F3GSIpqHVBYJ7ZodWK1qOe7Yg9a29Y00B9Yp3ra56EG2+eiXk9+5jpaMGVj/QA2bsrbWuI2943q78O8yEDrkSFEx/N1QOPW8zUd0KiOWQrrxLo1s1ETZhkjzlrUPqetiSYlmqHv04kmE/6Zw5SMgY1HQIiOV0sHpGMIh03H5SsbD2gHVxNKxoizFrVPc60NmQ9f1nhBk6FfZE1BIL4oGQPloHFSJ4tMaQcmmk0cWL28TFWUjBFnTW+futagGW/bp+Xgy5qBrzoGF8DGIUMIrBjUiSeXddKJN5uYkjE6QrPaZ75Y2Of73Vw7/bWeM//jAbQeASESKagD0lLxurIYlIwRZ7RPAGEICIFo8V3GiDPaJ4BABIRAhCgZI85onwDCEBACEaIkhzijfQIIQ0AIRIuSHOKM9gkgEAEhECFKcogz2ieAMASEQCQ2pfZnD/g72npKciWOs7XXkRs7eE0QrU130j4BVEJACETAlc0P+DvPOktyZe7mLnFunOM1QZRc2Wza2r2+XVZrn71r7i+1z5vP8uIAnYeAEIiAI9c/9fz87GP17CmoJJfNZQ/yrSWIWoPt84yInLFvo30CnYuAEIgQszgRZ7RPAGEICIFoMYsTcVZP+7RLxrRPoMMREAIRYhYn4qzO9rmmZAygcxEQAhGiJIc4o30CCENACESLkjHijJIxgEAEhECEKBkjzigZAwhDQAhESMtsXtavqEFfIEpyaLV2aJ+ZVHpARKb012P5YmGiFX8XSDoCQiBaXVYGJnR8lqJkjFarp302XDLWoG5cRHr0phkN7mb0/m69/7Dev6D3T4vIqIgM6m0XRISAEGgBAkKgRplU2mQtBrRzG8wXC4v+R1IyRpy1omSswZ65VkbyxcKYrFw7p0Vkn27mZQD3musok0oPm9syqfReGhCwMQgIkRiZVLpHO6U+fc5BWYvTGvR595tObTqTSpcyGfliwcmk0iazMSQiY/5zV2dJzv7Wh3MX58/zlXVoqjrbp8kQHtJf62mfpevLCwbVmAZ8PXq/+X+f96HKbJtJpU0m0FyDI3bJmBYBtAYBIZLEdDILJqiT2rIW49qJ7avjHNVTkktZ2zJ+EK3QivZpPkiVsn5WUGgygDP5YmEhk0qbD1OmNDzufdDyfThbKH3bHoCWIiBEIuiYJpOV6Leerz9r0ecFg1LOWhzT+4b156FMKu16mcOg80bJGHHWipKxfpga0YBv1LrLu/a6dezgtP/DWSaV7g8aigGg+QgIkRSLXudjOezLWswEdEbTWh42Hd1g2LlyZcsD+7MHHvPdXE/JuMSR7SnHWXqFVokoNdg+7ZJxibbPK5UOTbN+o/YMYWuMoBcULvqupyMiclk/lE3z4gOtR0CIRPDGCUq5c3Kt52xnLYIyE4vWTMlKdkRxHpfeWHxUVjrQZQHBrP95VNw2bPt22zbsmNtt21a/Htt23/4XQdtW0dXAY8T6oLU8O1jHCA5591mzi/26G/ybANbJcd3A9zCg42nQNaxjCM3/A/liwS4pe9sM5YuF0HGE2Vy2lOmbn5v3Z2DqFuW+gI1on9Z1NeLLEHrLyczocjILXpZQS8Y9la4zAM1FhhCJoGOZTGC3vKyFZi1GtUxlOqlhM9PYVzYeqKeExSxjxFkrZhnrdWV+HNWJWeJbZ9Bcj4M6ZtDLSMxo2RjABiEgRFJMaMA3biaISLlTGteS8IwOhJ/RcU6D1izjAWsWMpAkjZaMvSVn1izLZN2/4JvgBWCDERAiEXTiyKBmLVZlJayM4KAuQ3NZMxzeAtQLtZ4j/XqvmkpzmnEhK4iWoX0CCENAiMTQclVoVkIDw9CZxLWgZIw4a9HC1ADa0CZeNABAgIZLxgDaDxlCIEKU5BBntE8AYQgIgQhRMkacUTIGEIaSMQAgCCVjIEHIEAIRoiSHOKN9AghDQAhEiJIx4oz2CSAMJWMAAICEI0MIRIiSHOKM9gkgDAEhEAFXthzcnz3g72jrKcmVOLI95ThLr/CaIEqubHkgwvZ5hRcH6DyUjAEAABKODCEQAUdunHt+/nxNpThPUEkum8uuycoA6+XIjWdpnwAqISAEIsQsTsQZ7RNAGErGAAAACUeGEIgQszgRZ7RPAGEICIEIUZJDnNE+AYShZAwACMLyMkCCkCEEIkRJDnFWZ/ucFZFZXlAgGQgIgQhRkkOc0T4BhKFkDAAIQskYSBAyhECEKBkjztqhZJxJpQdEZEp/PZYvFiZafQxAEhEQAjXKpNKmkzKd1YyIDOaLhUX/IynJIc5a1T4zqXS3iIyLyGG9aUGDu2lZCfrM/T16/4zeb/4fNdeXPuaCiBAQAi1AyRiJkkmlRzOptKv/LmdS6SHv+ZtOzAR91v0XtOMy95U6tnyx4GjnNUTLQYdbT8l4SoO9vXrNmKBuSq+xbr1/wtyn95sPV6dpUMDGIUOIxMik0sOaseg3mQgNBsczqfR0vlhYsMpUphNbzKTS49qJ7av1HFEyRpy1omSsH55MMLjPy6Lni4WxTCptgsJuLytobrMeNqbXmrlvxC4Z06CA1nBc1+VUIxEyqfQlzUosd0R625iVodhrl4K1TLyQLxaOhZWMzRf+u1tv/yN3295r9nl0bnv7K5ve/zNPhp1bd+HZlPuPX0utuvHq5S5n6bX8/Benf4xWiSiY9nnHjm2f2r55+1V7d995m7zyf79/S2j7PL1wK/XFf3RXtc9Xr97oevH1a//f52f+5qfDHmey8FYp2CsZL5eENUNYuu68a1Gvre58sdDPiw5sDDKESIx8sbAq05dJpfu041rwAr2AcYHTXnk4XywMhp0r5/Z3bpfvyN256rZde+8RkQOh5/dtd4hc/daqm5a+Uhpidb8pWdu3a1ltFf82lbaVkO3bbdsozkUctm316/Hd79wu37t39eZ373Iqtk+z/T9eXb2rnVtEXlty8mGPUd0aCE57x6gB3+lMKt2v2fcRzc6PWo8jGAQ2EAEhEknLxaYzGjED3bXMtWaSiN7WU/Ucdb37W5vu+6Hues6lc8e+0j/bjjtS4i489dT8k588WO3xYQFBFNuzbXO3beVxmAzh/Xudz/3cfZvrOTy5t8uRe7tWP+ZLr7qS/5b7eg0PX/R9gDoiIpdFpE8zhKP2DGIdzjGlAeNCXQcKIBIEhEgUHaN0WrMYR7xZjxr4BQV03ZpBrIl7zcFDWgAAHT9JREFU5WVxn/vT8qZdd8um+x8JfZhbvCDui18q/ezc815xUiRI0FwvXHHl15+7Wfob+7sc+Tf3hweJn335ljzxtVuln3/0nk3yo6ma5yDOWKViPy97OGMvJ6NjDIf0vrGQxwJoImYZIzG0RHxBO6N9VjAo2ol52QvbgJaNa+Js3Slisn4m+7fnrsoPua17edvSz0CTvW2ryPfd4ZT+3bunctLx7l3O8rZ331ZX8nPSfMDSMrHntI7FnbSuNXuG/7Bm4mdoA8DGIEOIJDltD2S3mY4qk0rPaNlq0JplbALCmmcZm8Bu030/VNOmQSVjoJlMYPfzNZaOg0rGtdBrZ1DHDHqDEGe0bOxlA82Po3qNiX+dQgCtR0CIRNBScY92QqO+5zyiQeKgBo2XtcPyZhNTMkZHaFHJWPSaCW3Qer1RGgZihIAQiaAdVMW6l84wDp1JXAvHlH69DKEpH1fgWKViZ9deGiKazs4Q3r618l8zJWVv27t38doAnY6AEIjS1p21l4Fv6y4HkECLeGMIa2GCx7tv45UBkoKAEIgQJWPEWatKxgDaDwEhECFKxogzSsYAwhAQAlGiZIwYo2QMIAwBIRAhSsaIM0rGAMIQEAIRomSMOKNkDCAMASEQJUrGiDFKxgDCEBACUfjG/B23Xvv3q3dUR8l42fXXxdmxcwevCaL0mZdcOf/qjVV7rKdk7Pn29Zty7aZDOhvoQASEQBT23PVt57sGVhfW6igZL7vyksirL9yo9DigXiYr+MPvWR381VMy9pgxiH/yorzOCwB0HgJCIAq7uq/W/b3EgSXjm+Je/hoBISL1jh21l4o9QSVjRxz59EvuEq8O0HkICIEIMcsYcVbPLOM/Kd6SP3mRWcZAUhAQAhFiljHirJ5ZxiajePdtzDIGkoKAEIgSs4wRY8wyBhCGgBCIECVjxBklYwBhCAiBCFEyRpxRMgYQhoAQiBIlY8QYJWMAYQgIgQhRMkacUTIGEIaAEIgQJWPEWTuUjDOp9ICITOmvx/LFwkTr/jqQXASEQI0yqbTppExnNSMig/liYXHNIykZI8ZaUTLOpNI9InIp4K7l4C6TSg+JyKiIeBfARL5YOKY/m9sHRWRBRC6Y+2hTQPMRECKRMql0t2YhJvPFwpis3HZagz7RwG8kXyxMZ1Lpw+aGfLHgZFLpcRExHdqY/9xRMkactahkbALCxXyxEJj21mtp3AsQM6l0n7nuzHVlBYUAWoyAEIljZfqMSev5e2WqvSb7p4HfVCaVrvk76SgZI85aVDLu0exemGHzYcrLFuaLhZlMKn1MrzXzIWvELhnToIDWICBE4uSLBVOOMoHhcllLsxZ9XjAo5e2OaflrWH8eyqTSrpc5DDxvlIwRYy2aZWwadbdeXz16mwkARzQL3+fPrmsW3vw4oIFifV+8DGDdCAiBMtNJzQSMC5zW8vByIBno63/zzluvfXP1PXWUjD1LxWfNTw9r4LnMlKr9j/dvU2nbsO3bbduwY263bVv9enzmpe1y/tUbq26rp2Ts+fb1m3LtplMtne19yjmi2b8BLQkvWhn5teNvy1lFPiEBG4SAECjrDumkFq0sR7g70otOz8F3rbq/jpLxsnJACETKZAV/+D2rg79qJeOBuzeVsoQ2MwbxT16U1ys9zmQC7Qy6Zv9M1u+wNUEkKPDrCbkGAbQAASFQthjSSXVXGQ9Vtv1tSzWXij0BJeMd//WviLvw1FPzT37yYLWHh2WIotiebZu7bSuPI5vLHnzHDvlcraViT1B52RFHPv2Su1TpcZlU+rKWiNdMutKxuTOakZ+0HuON6Z2u6yABRIaAECgzndSwGePkKxsP1NNJMcsYcdaiWcZjei3NaHZwwDcrf0xLyAvWLONxXXqm+ocvAE1BQAiUMxeTmrkwMx0HrVnGpjNjljE6Qj2zjO2ScT2zjE1mUCeITOn/oss3jcnKtWZmD4/qNSa+dQgBbAACQmDFoK5DeFk7Mm8B6tqzFswyRozVM8u4nm39NPhbUzL26ExiFpwGYoSAEImVLxZWRW5aKg6fSVwD99VLcuup3ylt6NzRI5se/u9DH0TJGK3216+68uhT5dnG773DkT94OLwL4LuMgWQhIAQi5HTdJZse/mh5h5SMETNm3OATGgQ2q2QMoD0REAJRomSMGGtVyRhA+yEgBCJUT8n41vP/Rdzny9/Q5dw3KJu8yShAk9RTMv6Dr92S/1VnJP/cfZuWJ6MA6EwEhECE6ikZb7rnveJqNpGSMVqhnpKxGTN4bxclYyApCAiBKFEyRoxRMgYQhoAQiBAlY8QZJWMAYQgIgQiZ7ODmH/uNmnZYCgAJAtFCJuN38ceq1IrVv/quTaV/AJKBqx0AACDhyBACEXAXnn3PrfyXVu2onpLx8mPkpjjfcc9uXhNEyZR/P/H89VV7rKdk7DHt8z27nTt5cYDOQ0AIRMDpeeClTb1H7qlnT4El41e/Ku7CU6/zmiBKpvT7c/fVVir2BJWMv/SqI7/xt0uv8OIAnYeSMQAAQMKRIQQixCxjxBmzjAGEISAEIsQsY8QZs4wBhOFqBwAASDgyhECEKBkjzigZAwhDQAhEiJIx4oySMYAwXO0AAAAJR4YQiBAlY8RZPSXjTzx/U37r+VulnykZA52PgBCIECVjxFk9JWMTABIEAslBQAgAiI1MKj0gIt53Oh7LFwsTvDpA8xEQAjXKpNKmkzKd1YyIDOaLhUX/IykZI85aWTLWwG5cRHr0pkkN8Bb1/lERGdb7zG0jGvyZ2wdFZEFELogIASHQAgSEgMqk0t0iclqDPtHAz3RS05lU+rC5IV8sOJlU2nRyQyIy5j93lIwRZ60qGWdS6R7N8pnrZ8z63QR7xzKptAkEzTXVny8WZjKptLmexjOp9DQNCNgYzDIGVpgOywSFe03gpwHhlHZmAGpngr0ZEwxK+YPUgmb6vA9bJgCcMMGg3j+hGUFz/4hei5f0ZwAt4Liuy3lG4mkG8LQGg8ulYC0TL+SLhWNhJeNsLnvQdXZ+1r21edUHrHpKxp7rb/xj4LYaoK6SSaUDL96gbSVk+3bbNopzEYdtW/16vL2rS751fduq2+opGXscuSnv2X39L/7i/HMfDH1g+Rj6vGBPVrLvprFP54uFNUGe2V7Lw+a6IksIbAACQmBlPNNAvljot8+HlraG8sXCvrDzZAJC2fcDp5zeI/cs3/jmN0WufF3cKy+Vf/+nr648YM97RLbuFOe2t5d/7nr3yn2vflXchaeemn/ykwd5XRAF0z5/dv+Oz/3cfTvXvbcvvXpDfuNv33zi9Of/5mgt2/smiCzmi4W9AdsMaSl5zMsoAmg9xhACZd06sN1v0RoUX5kJAF/8osjLsyJd7xHZ825xusrBn3zXB8r/Sznok9IElK+KvPyciAka7/huce7qXdkG6ACa7StlMk2G3fzLFwuDsjLO8LRee0fIDAIbi4AQKFvUjsmvW8c2hdt224fllb99t/vWZXHueZ/I/Ycrn9I7vrv0n6P/l5hgMv/ZcnC4/fbvyOayXfNz81d4bdAMf//mLXn5jVuljJ/xwms35VvXy9Wi73tHuVv4nq7NcveuTXJvV/0TSzKp9AUdanHEunnMyxZqidj8PGmGY/AiAxuPgBAoM+Odhs1YJ99yMqbkFZi5yL7vAx8S9+Yn5M7su5zsI5tl19sbP5Vd7xan/1GR62+J+7XP7pfX/+FS9qEP/Zv5pz/NkhuIxAtXbsqZF5fkL1++Li+/uXps4O6tTinw+/aSK7998eqa+z5w11b5wbu2yu1bA4ctBpnQWcNmuMWEjiEcta6l05SIgXhhDCGgNKsh3oQRa3mZfTpLcln2/T98Sm5e/3HnvT+9bdUYwKiYwPCvf++6vPnNr8i3vvF+soVoVC6XG337dmf4m9fK7/Xfs2dzKcB77x1bSkHg20KCPJM9NJlD878JIo1dWxy5bat84dW33A/Nzc1VbJM6/nbYyrybYNDLBl4KedgIQSKwMQgIAVVpHUJvG1PKle23z8t7+u9yqpWGo/DiF8V9/tOXZcfth+af/rPP81qhVrlc7uC2TfLbS7dkvwnkjn7XdvlwalupDFyvb1935bMvX5dPfu2afOW1m7LZkTduuvKrc3Nzj/OCAJ2BgBCoUSkY3LX3knPfh/aKGSvYKmZ84Rc+sSS7ugcIClGLXC5nArVfNOXef5XZLj/5XdtDM4H1MhnDX7nwZqnsvGWTfOHGLfmXc3NzRV4YoL0REAI1KAWDt9/1gtP7L94p9mSQViEoRA1yuVzXtk3yVyYraMb8/Vr/rsgCQb/ffv5qabzhlk3y5o1b8hNzc3NneI2A9kVACFRRCgZ37HnByX34nS3NDPqVgsL/66pc/db75ufmZ3ndYMvlcr2bHPn8LVd2D9+/U34ys73p58dMVDn69OvyenmG8k/Nzc2d4kUB2hNfXQdU87Y7/9j5nh/a2GBQdCby9/3rHbKze6oUpALKCwZ3bXFu+/j7bmtJMGiYSSlTP3x7aaKKiPx+LperacFqAPFDQAhUkP2+9/+EbN/9fsn8YDxOkylXp77/HXL7u343BkeDGNAy8WdMMHjqod2OmUHcSqYkferh3XZQeIh2AbQfAkIghGbhftN579FYrdfp3Pch899/k81lezf+aLDRtmySTy/dkneN3L/TaWQR6Sh4QaGZxLJlk/yHXC6XomEA7YWAEAjT/Z2Pyz3v27uuBaebxOn9yDbZ9fb/h9cu2XK53PEbt+Sf/+z+HXLonm0bei5KQeFDu+XGLdm1ZZP8YdJfG6DdEBACAUrZwTcXDzvmO4jjyJSOd+65myxhcpks3JZN8mumVPuz9+2IxXkwGUoTnJog1QSrMTgkADUiIASC3H7Xz0jPQ7tk687Ynh4n++Edsufdn4jBoWADbN/s/LrJxpmlZeLEBKd37dpkFq/+d2Z8I20DaA8EhECQG9c+6qQ2eFZxNSZLeONqLt4HiWYw2cFrN90f//A922Sjxg1WYoLUm67cJiJkCYE2QUAI+JTKxZu33BXHsYNrvOt795RmQiNpHhPNxsWR+Z5kkyXcvtn5KC0TaA8EhIDfrr0/Iu/uj2+t2OLcdb/Itt0fic0BoSW2bJLD5ptIGvle4lYxweq1m+47WYYGaA8EhIDf9t2DzkZ8PV0jSmXjt/4Zr2FymADLjB38wRavN1gvaz1EAkKgDRAQAn7X3zooXe9po9PitEFtGxE6KKsDrlgyy9CYoHWzIz/Giw/EHwEh4Hfzxm1xnl28xpYdN2J2RGiinVucH+6/Y0sp4Io7M5bQTC5hoWog/ggIAb/tb4vVN5NU9Y5MVzaXPRjzo0RE3rrhfve9e+I3sziIdZyslwnEHAEh0O7aKZuJdcnlcqXA6u7b2uOt21oSh4AQiDkCQgBoH6WFntslQ9gOZW0AZQSEgN+Nq+1VMr7+VgwOAgDQzggIgTXcb7bVOfmn/JX5uflzMTgSAECbIiAEgrzZRjHhW4vbYnAUAIA2RkAI+G3deU6ufL09TospF2/d8WoMjgQA0MYICAG/a69Pua9+tT1OizlOE8AiKWbN8/zSq+2x9OTfv3nL+/HKxh4JgGoICAG/Ny//mXz9wtV2OC/uy7Mii393KgaHghaYm5u7stmRN6xAK9ZeuHLTO7xZ2gcQbwSEgM/83PwV2XZbvi3Kxq/Mvc6EkmRxHJltlwyhdZwEhEDMERACQW5cG3Xzn433qXnxiyI79xIMJsyNWzL98pu3pB2yhCYg3LZJLprMZgwOB0AFBIRAgPm//vx/MNm3OK/x586fvSFX/u5/iMGhoLXOmL/2ly9fj/VpNwHrV167KUu35HQMDgdAFQSEQJjtt590n4tpX2ayg9t2n5+fmy/G4GjQQnNzc7ObHfn7T37tWqxPu3V8jHEF2gABIRBi/q+m/nf5h4v/ELuxhNffEveFJ1+X177+L2NwNNgAN135VVM2PvPiUixP/7evu6Vj27JJvjA3N8eHFqANEBAClezqPux+6feW4lQ6dmc/tSRbdvwO2cFEO2NmG//28/GcDG+yg69fd814x1+NweEAqAEBIVDB/NN/9nlx3d+PTenYlIpf/Vph/pk//59icDTYIGaShpcl/GQ+XqVjM3bwD/LXXM0OMukJaBMEhEAV81/87Eflyte/IPm/3NhTdeXr4j7/6cvy1uIDG3sgiIO5ubnHzQze33r+qhunGce/cuFNkx10btySn4/B4QCoEQEhUIvXvv4h94U/f6mUodsIJhh85uOvy5uXP1BaJxEQMTN4/zsTfP3CX70Ri9NhStgXymsPnjSTXzb+iADUioAQqEEpCLv2+ve68//5K+5zk609ZS9+Udwv/vvLcu3198/PzdPJYpkGXb9klncxmbmNZCaR/PbFq95Eksd4lYD24riuy0sG1CH7vg/8pdz2jged7/vprbJ1Z1NPXSn4fOnCy3LtW1kygwiTy+XM0i6PfviebfJr/btafp5MMPirF96UnVucr751wz3AQtRA+yEgBBqQfehDQ/LmNz/u5A7tkHveF/0pfPWr5dnEm7f+0fzn//worxGq6bv/n/3HazfdH291UOgFg9s2yTeWbsn3s8wM0J4ICIEGZXPZLnnbnX8s23a9z/nuH9ohd92//lNpxgp+bWpJLhe+Ia+/eogSMerhZQq/Z89m+c3vv03u3tXcUUGjz70lf5i/RmYQ6AAEhMA6ZXPZlOx59x/KtW/1Sfr9O5y7ekW63l37Tt/8Zjkj+NWpJbmx9JJs3np8/ouf/TSvCxqRy+WOi8jHdm913J+7b4fzk5ntkZ9H8x3FJhg0Yxe3bZLPLN2SnyAYBNobASEQkVLG8Pa7fkbEfVRuXn+P7H7nVtmb2uXc9naRXW9f+SPmm0auvCTyxqtLcrm4JOJ+U7bsnJQrf/dbLDaNKORyud5tm+Q/Lt2S/Xft2iQ/e98OOXTPtnXv+YUrN0sTR8z3KG/ZJG/euCW/Ypa/4UUD2h8BIdAkpcyhSEq6vvNHxJE7Vv2Vxb8zpb0rlITRTCZbuNmRf3fTldtMYPiDd20tBYb3dm2u+a+ar6H77MvXS2MFdUkZ4wkROU5WEOgcBIQA0OFyudzRbZvkl03G0DxTExyaoPDePZvle7o2y+1bnVUnwJSEzWLXJiNoysKG+aq8m678rog8zsQRoPMQEAJAQuRyOZO1PrRtkwzedOVhkzms9Mx3bHbOX73pPmsmE/M1dEBnIyAEgATL5XIHA579LOVgIFkICAEAABKOr64DAABIOAJCAACAhCMgBAAASDgCQgAAgIQjIAQAAEg4AkIAAICE25L0EwBEIXfi6WERGRWR6bmTDw1yUtEUJx701gkblJPPTHf0SU7ScwVigIAQHUUDsz4ROex7XmMiMjN38qHJdnm+uRNPD4jIlP46MnfyobENPiSceHBIRMbrPA/H5OQzE4k/d+3mxIPm2hsoHfXJZ5xOempAEAJCdAQNnkxH3RPyfEygaLYzmYYjcycfWuSVBwCgjIAQbS934mk7a7MgIhN2Ni134ukezRiO6if+C7kTT/cTFGJdyBoll50pph2gQxAQoq3lTjzdZwWDk3MnHzrifz5zJx8yQeKYZgenNIs4WirlxdjcyYfM8dLZABvh5DOMBUaiMMsY7c4LBmeCgkHb3MmHZsxYPL1pKHfi6W5efQAACAjRxnInnj6sE0jECvSqsSeV+CeeAACQSJSM0c68gG5Gy6tV6bjBUhk2LEOogeZhX8A4rSXphmaL6t8a0skt9t+d0P0GHn/uxNPLS2/Y2+i4yEtB9/ke782UNOMq15TIGz0urNOJBwe0fQ1ZOyqNf5WTz9Q+m/zEg8O+125G9xHcTsvbl5ZHKpVETzzYp4/32vraJV5OPBh6PdTxdwb0udr7GNNjXWjKc436OUjILPOV5XFEjyfWQ1GAMGQI0c687GBDQUvQpJLciadPi8jpgOxhaRazBlh10XGOl7Rz8QehpoOZ0uVyWiqux9XxykHFlC8YlOWxrScevCAnHqw2nKG7tN3a1648pvbEg9WXxikHgxcqZspPPFjxetClWar9He/5+vcxXPr75eOoZH3PNYrnACQAASHambfETCSzhTUYPKyZmmNzJx9yvH86AcXcPpA78XS969Cd1o7MBK791j73aSbOGNUArZXielydqxz8eO3HnOO9pVmq5ZmqXmawT4OfSob0tTtiPb7f+nA0pFm5Sk5rm17Zh50dLAdSy9eDtc2q66FKQNajz9f/XL0hHt1Nfa7RPIcVJpu48tgye59kB9HGCAjRlrRk6ll3QKjrGHodR7+/NKy/D+rfGvL9/Ur77bEC1yM6scXb54KWcb2OrVoHHpm4HldbMaXC6v/8GVbv9+lS8HDymZW2e/KZESsQrza+tU/LuytjYk8+M1MKmsptWAIykDbvNe1ftQ/PSkl7QbdZXVYt/758PciJB8Ouh55SoLv2uY5ZQeFAlSxhY881uucAJAIBIVDmdSgTYesT6vI1XpDUyISUwA7HfNWdZuY26tss4npcncgLxMLOqRf0dFcJUILH3pWDLm8f1QKckVVB2mrL10PoNuW/X8v1EDYm0j4HzXiuUT4HoOMxqQRtyQRnuRNPe4cexfIxXkdtSqTVSlhSQ2dbose5oNubBbHHNCOx4P8avVYulB3X42orjSxIfPKZvRE9xUoTMbzXq9J1sRiYGVyxfD3IiQfXcz0sVAjGFuXEg95vlY610eca1XMAEoGAEO3MC2iiCAibuSbhoI7X6rNKhmIFtBOamZwJ3UOyjqvzlSeN2GXOoO/frqS2mbnhqj0+quthvce5nn2wzihQBwJCtLNp7VSjHOMWuoRLo7TU3K+TMwa0o7LHlg3puMT+VgZfcT2ujrYyqWSjJ+rUmvVduwxN++mE5wA0HQEh2tmkBi19ZlJILYGcrrt3WX8dsb7zeFEDor5Gl7GpRoMqL7AakZXvYR7WTOewDpSPUtUy2AYdV/KUxwROaTtbtMbWLS5PeChPhIjDMihNvx5aoBOeA9AyTCpB29IA0AtkahkjJL6ynD2ovaYZtbkTT5vxdm5U6/Pp7GVvtmWjWaOwBba7Gx0XFdFxYbUhKxjcV5ppW/5nt8O4lDlrm2FeXjMxaDZ1HHTCcwBahoAQ7c5b96uv2qLRWhr1Akf/bOLlzkO/qSTo8fZX5VUakG8/5rQGkKcrbFb3eopa7vW2D+vwQju4Zh0XKvKCvfCJFhVesxZbCabK3/KxVvn2uq4HngMQXwSEaGta7vTKmSaYu+TP3pk19/S2C9opL/i/+1gzYl6HYIKlUfur7fTxXvA0pgFZLZbXlTMLWvsXedb9ekFqvR2St/2Qf7Fs/X24woD8Zh4XgnmvRd+abJT5No/yt3HEY6ZrOWu5fD2UZuna355SPv7l66Hmr59rpeY+h5UxtfZryVqGaGOMIUTbM8uk5E48PaiD9XuqLB0zrQsxr8nQzJ186Ij13b+l7021Ztx6zPf7jvhvDGPK2rkTT49ocOVN0gjaetIaz1irMT3WHt2vf3HeEet+/3Nt5nEhiCkPr2SkgpZCWdSMd6WsbeucfOaIfq3b8vVgLROz3D50Qe14atZzMAtjn3hwJuS1rH85IiAGyBCiI5gAZ+7kQ/9/e3d0giAUhmHYZmmFVnAwL5ulFbp0jlZoBKP4hRA7UCAV3/NcKhzUEl4OetxXBK3NaB0rBPvWunr3/TXjuBzjXJ+ze/vligqqw3JWspzquD4Z9/Ji3Dl6myG31XHRMIzz9X7+D15r277WBpz3ff/ZzWFs3g+P4Pp1251Dv7LAuJdX+Fu7aZr8egAAwcwQAgCEE4QAAOEEIQBAOEEIABBOEAIAhBOEAADhBCEAQDhBCAAQThACAIQThAAA4QQhAEA4QQgAEE4QAgCEE4QAAOEEIQBAOEEIABBOEAIAhBOEAADhBCEAQDhBCAAQThACAIQThAAA4QQhAEA4QQgAEE4QAgCEE4QAAOEEIQBAsq7rbov5+QvVKu4zAAAAAElFTkSuQmCC;" parent="7" vertex="1">
                    <mxGeometry x="490" y="40" width="298.92" height="233" as="geometry"/>
                </mxCell>
            </root>
        </mxGraphModel>
    </diagram>
</mxfile>